<?xml version="1.0" encoding="UTF-8" standalone="no"?><!DOCTYPE svg PUBLIC "-//W3C//DTD SVG 1.1//EN" "http://www.w3.org/Graphics/SVG/1.1/DTD/svg11.dtd"><svg width="100%" height="100%" viewBox="0 0 910 1024" version="1.1" xmlns="http://www.w3.org/2000/svg" xmlns:xlink="http://www.w3.org/1999/xlink" xml:space="preserve" xmlns:serif="http://www.serif.com/" style="fill-rule:evenodd;clip-rule:evenodd;stroke-linejoin:round;stroke-miterlimit:2;"><rect id="Artboard1" x="0" y="0" width="910" height="1024" style="fill:none;"/><path d="M894.601,501.804c17.819,102.465 -0.747,208.418 -53.17,299.218c-76.965,133.306 -212.522,211.885 -355.439,222.008l-43.045,0.97c-71.939,-1.852 -144.436,-21.162 -211.089,-59.644c-166.433,-96.089 -247.559,-283.511 -216.53,-462.552l230.114,-0c-36.56,99.757 2.827,214.391 97.975,269.325c33.327,19.241 69.576,28.896 105.545,29.822l21.522,-0.485c71.459,-5.062 139.238,-44.351 177.72,-111.004c4.26,-7.38 8.074,-14.959 11.435,-22.703l-57.844,-0.284l-222.243,0.311l-3.829,-164.982l518.878,-0Z" style="fill:url(#_Linear1);"/><path d="M36.922,420.707c60.492,-172.532 224.831,-296.223 418.057,-296.223c193.232,-0 357.576,123.691 418.07,296.223l-836.127,-0Z" style="fill:url(#_Linear2);"/><path d="M558.172,150.092l-19.87,2.211c-27.673,3.066 -55.488,4.615 -83.322,4.615c-27.834,0 -55.649,-1.549 -83.316,-4.615l-19.869,-2.211c-0,-0 44.541,-19.78 44.547,-19.786c19.105,-8.479 20.725,-31.151 8.627,-46.161c-9.745,-12.092 -23.47,-22.807 -35.413,-32.681c-5.67,-4.693 -13.493,-8.987 -13.493,-17.35c0,-18.834 44.271,-34.114 98.917,-34.114c54.646,-0 98.923,15.28 98.93,34.108c-0,10.786 -14.657,18.352 -21.747,24.478c-16.36,14.162 -46.765,36.647 -30.791,61.248c2.938,4.5 7.129,8.183 12.246,10.472l44.554,19.786Z" style="fill:url(#_Linear3);fill-rule:nonzero;"/><defs><linearGradient id="_Linear1" x1="0" y1="0" x2="1" y2="0" gradientUnits="userSpaceOnUse" gradientTransform="matrix(-802.888,392.442,-392.442,-802.888,851.847,370.46)"><stop offset="0" style="stop-color:#f89945;stop-opacity:1"/><stop offset="1" style="stop-color:#f52680;stop-opacity:1"/></linearGradient><linearGradient id="_Linear2" x1="0" y1="0" x2="1" y2="0" gradientUnits="userSpaceOnUse" gradientTransform="matrix(-802.888,392.442,-392.442,-802.888,851.847,370.46)"><stop offset="0" style="stop-color:#f89945;stop-opacity:1"/><stop offset="1" style="stop-color:#f52680;stop-opacity:1"/></linearGradient><linearGradient id="_Linear3" x1="0" y1="0" x2="1" y2="0" gradientUnits="userSpaceOnUse" gradientTransform="matrix(-802.888,392.442,-392.442,-802.888,851.847,370.46)"><stop offset="0" style="stop-color:#f89945;stop-opacity:1"/><stop offset="1" style="stop-color:#f52680;stop-opacity:1"/></linearGradient></defs></svg>